<svg xmlns="http://www.w3.org/2000/svg" width="128" height="128" viewBox="0 0 128 128"><g fill="#77797F"><path d="M64.93 60.5c-.367 0-.664-.297-.664-.666V34.498c0-.367.296-.664.666-.664s.666.297.666.666v25.334c0 .37-.297.668-.666.668l-.002-.002z"/><path d="M56.93 43.166c-.17 0-.34-.064-.47-.193-.263-.262-.263-.684 0-.943l8-8c.26-.26.682-.26.94 0 .262.26.262.682 0 .943l-8 8c-.126.13-.3.193-.47.193z"/><path d="M72.93 43.166c-.17 0-.34-.064-.47-.193l-8-8c-.263-.262-.263-.684 0-.943.26-.26.682-.26.94 0l8 8c.262.26.262.682 0 .943-.13.13-.3.193-.47.193z"/><path d="M72.93 43.166c-.17 0-.34-.064-.47-.193l-8-8c-.263-.262-.263-.684 0-.943.26-.26.682-.26.94 0l8 8c.262.26.262.682 0 .943-.13.13-.3.193-.47.193zm10.668 22.668H46.264v-8.668c0-.37.3-.666.668-.666.367 0 .666.297.666.666V64.5h34.667v-7.334c0-.37.297-.666.666-.666s.667.297.667.666v8.668z"/></g><text transform="translate(40.93 85.834)" fill="#77797F" font-family="'MicrosoftYaHeiLight'" font-size="12">上传图片</text></svg>